# xmcd
# Track frame offsets:
# 150
# 12718
# 31382
# 53217
# 63828
# 81294
# 94357
# 121426
#
# Disc length: 1898 seconds
# Revision: 0
# Processed by: cddbd v1.5.2PL0 Copyright (c) Steve Scherf et al.
# Submitted via: VisiTrax 2.10.2.252 - For more info visit www.synapsa.com
#
DISCID=6a076808
DTITLE=The Blue unit - Music from the east side of the swamp
DYEAR=2007
DGENRE=Blues
TTITLE0=A Ammons - Buggle Boogie
TTITLE1=JT Holmström - Reed on my lips
TTITLE2=O Spann - The hard way
TTITLE3=JT Holström - Black tuesday
TTITLE4=R Byrd - Her mind is gone
TTITLE5=T Palmroth - Big t:s minor blues
TTITLE6=TJ Holmström, T Palmroth och R Jansson - Swampland
TTITLE7=B Schad - Junko Partner
EXTD=
EXTT0=
EXTT1=
EXTT2=
EXTT3=
EXTT4=
EXTT5=
EXTT6=
EXTT7=
PLAYORDER=
